<svg width="17" height="17" viewBox="0 0 17 17" fill="none" xmlns="http://www.w3.org/2000/svg">
<path fill-rule="evenodd" clip-rule="evenodd" d="M10.6002 10.5428H11.1598L14.6944 14.287L13.639 15.4027L10.0973 11.666V11.0745L9.90608 10.8648C9.09858 11.5986 8.05025 12.0405 6.90983 12.0405C4.36694 12.0405 2.30566 9.86135 2.30566 7.17304C2.30566 4.48474 4.36694 2.30563 6.90983 2.30563C9.45275 2.30563 11.514 4.48474 11.514 7.17304C11.514 8.37867 11.0961 9.48694 10.402 10.3406L10.6002 10.5428ZM3.72233 7.17304C3.72233 9.03764 5.14609 10.5428 6.90983 10.5428C8.67358 10.5428 10.0973 9.03764 10.0973 7.17304C10.0973 5.30846 8.67358 3.8033 6.90983 3.8033C5.14609 3.8033 3.72233 5.30846 3.72233 7.17304Z" fill="black" fill-opacity="0.54"/>
</svg>
